<svg id="action_addtocart" data-name="action/addtocart" xmlns="http://www.w3.org/2000/svg" width="24" height="24" viewBox="0 0 24 24">
  <g id="Transparent_BG" data-name="Transparent BG" fill="none">
    <path d="M0,0H24V24H0Z" stroke="none"/>
    <path d="M 0.01000022888183594 0.01000022888183594 L 0.01000022888183594 23.98999977111816 L 23.98999977111816 23.98999977111816 L 23.98999977111816 0.01000022888183594 L 0.01000022888183594 0.01000022888183594 M 0 0 L 24 0 L 24 24 L 0 24 L 0 0 Z" stroke="none" fill="rgba(255,255,255,0.01)"/>
  </g>
  <path id="Shape" d="M15,19a1.5,1.5,0,1,1,1.5-1.5A1.5,1.5,0,0,1,15,19ZM8,19a1.5,1.5,0,1,1,1.5-1.5A1.5,1.5,0,0,1,8,19ZM5.757,14.152h0L2.973,3.014a1.389,1.389,0,0,0-1.113-.98l-.127-.01L.5,2,0,0H2.29A2.671,2.671,0,0,1,4.718,1.774l.046.158,2.483,9.931,8.422-1.544a1.608,1.608,0,0,0,1.152-1.036l.032-.124.43-2.169L15.5,7V5h4.22l-.979,4.9a3.173,3.173,0,0,1-2.19,2.287l-.171.038L5.758,14.151ZM11.5,9h-2V7h-2V5h2V3h2V5h2V7h-2V9Z" transform="translate(1.5 3)" fill="#fff"/>
</svg>
