<svg id="action_checkout" data-name="action/checkout" xmlns="http://www.w3.org/2000/svg" width="24" height="24" viewBox="0 0 24 24">
  <g id="Transparent_BG" data-name="Transparent BG" fill="none">
    <path d="M0,0H24V24H0Z" stroke="none"/>
    <path d="M 0.01000022888183594 0.01000022888183594 L 0.01000022888183594 23.98999977111816 L 23.98999977111816 23.98999977111816 L 23.98999977111816 0.01000022888183594 L 0.01000022888183594 0.01000022888183594 M 0 0 L 24 0 L 24 24 L 0 24 L 0 0 Z" stroke="none" fill="rgba(255,255,255,0.01)"/>
  </g>
  <path id="Shape" d="M13,20H2a2,2,0,0,1-2-1.842L0,18.009V1.991A2,2,0,0,1,1.853.005L2,0H13V2H2V18H13v2Zm0-4.073v-2.87L15.03,11H6V9h9.015L13,6.958V4.087l5.92,5.92L13,15.926Z" transform="translate(3 2)" fill="#f05e27"/>
</svg>
