<svg xmlns="http://www.w3.org/2000/svg" width="24.594" height="24.594" viewBox="0 0 24.594 24.594">
  <path id="_Icon_Color" data-name="🔹 Icon Color" d="M19.676,24.594a2.459,2.459,0,1,1,2.459-2.459A2.456,2.456,0,0,1,19.676,24.594Zm-12.3,0a2.459,2.459,0,1,1,2.459-2.459A2.456,2.456,0,0,1,7.379,24.594Zm14.756-6.148H7.379a2.463,2.463,0,0,1-2.46-2.46,2.376,2.376,0,0,1,.308-1.18l1.66-3.013L2.459,2.459H0V0H4.021L5.177,2.459H23.365a1.231,1.231,0,0,1,1.23,1.23,1.21,1.21,0,0,1-.147.591l-4.4,7.981a2.45,2.45,0,0,1-2.152,1.266H8.731l-1.107,2-.037.148a.3.3,0,0,0,.307.307H22.135v2.459Z" fill="#f05e27"/>
</svg>
