<svg xmlns="http://www.w3.org/2000/svg" xmlns:xlink="http://www.w3.org/1999/xlink" width="257" height="67.521" viewBox="0 0 257 67.521">
  <defs>
    <clipPath id="clip-path">
      <rect id="Rectangle_5194" data-name="Rectangle 5194" width="257" height="67.521" fill="none"/>
    </clipPath>
  </defs>
  <g id="Group_1017" data-name="Group 1017" transform="translate(0 0)">
    <g id="Group_1016" data-name="Group 1016" transform="translate(0 0)" clip-path="url(#clip-path)">
      <path id="Path_2070" data-name="Path 2070" d="M25.056,79.94a1.532,1.532,0,0,1,.363-1.013,1.824,1.824,0,0,1,1.022-.592,2.161,2.161,0,0,1-.917-1.76,2.028,2.028,0,0,1,.642-1.541,2.241,2.241,0,0,1,1.6-.605,2.281,2.281,0,0,1,1.642.652l-.5.669A1.586,1.586,0,0,0,27.8,75.3a1.407,1.407,0,0,0-1,.389,1.277,1.277,0,0,0-.413.968,1.457,1.457,0,0,0,.417,1.037,1.327,1.327,0,0,0,1,.44h1.945v.88h-2.55a1.475,1.475,0,0,0-.931.257.815.815,0,0,0-.326.669.934.934,0,0,0,.368.752l-.56.669a1.773,1.773,0,0,1-.688-1.421" transform="translate(-5.908 -17.548)" fill="#393e46"/>
      <path id="Path_2071" data-name="Path 2071" d="M31.208,80.176a1.177,1.177,0,0,0,.375.064q.943,0,.945-1.146V74.426l.88-.009v3.714h1.009v.88H33.409v.257a1.946,1.946,0,0,1-.44,1.334,1.715,1.715,0,0,1-1.357.5,1.875,1.875,0,0,1-.652-.111Z" transform="translate(-7.3 -17.546)" fill="#393e46"/>
      <path id="Path_2072" data-name="Path 2072" d="M35.51,78.134q.724,0,.724-.926V74.428h.871v2.66a1.127,1.127,0,0,0,.243.77.78.78,0,0,0,.611.275.766.766,0,0,0,.6-.275,1.142,1.142,0,0,0,.239-.77v-2.66h.88v2.66a1.142,1.142,0,0,0,.238.77.776.776,0,0,0,.614.275.766.766,0,0,0,.605-.275,1.142,1.142,0,0,0,.239-.77v-2.66h.88v2.66a2.007,2.007,0,0,1-.5,1.4,1.6,1.6,0,0,1-1.225.527,1.345,1.345,0,0,1-1.284-.751,1.386,1.386,0,0,1-1.292.751,1.4,1.4,0,0,1-1.266-.687,1.219,1.219,0,0,1-1.183.687h-.266v-.88Z" transform="translate(-8.31 -17.548)" fill="#393e46"/>
      <path id="Path_2073" data-name="Path 2073" d="M45.5,72.46v-.385H45.9a.651.651,0,0,1-.183-.449.68.68,0,0,1,.219-.518.761.761,0,0,1,.541-.206.8.8,0,0,1,.614.284l-.266.248a.429.429,0,0,0-.339-.147.4.4,0,0,0-.28.105.351.351,0,0,0-.115.27.407.407,0,0,0,.119.29.371.371,0,0,0,.275.124h.688v.385Zm.4.339h.871v5.383h-.871Z" transform="translate(-10.729 -16.717)" fill="#393e46"/>
      <path id="Path_2074" data-name="Path 2074" d="M51.817,79.611a.55.55,0,1,1,1.1,0,.554.554,0,0,1-.156.394.536.536,0,0,1-.394.164.523.523,0,0,1-.39-.164.543.543,0,0,1-.16-.394" transform="translate(-12.217 -18.64)" fill="#393e46"/>
      <path id="Path_2075" data-name="Path 2075" d="M57.5,74.554h.88v3.063a1.88,1.88,0,0,0,.454,1.321,1.532,1.532,0,0,0,2.256,0,1.877,1.877,0,0,0,.454-1.321V71.069h.871v5.347q0,.925.724.925h.267v.88h-.267a.9.9,0,0,1-.734-.321,2.622,2.622,0,0,1-.783,1.742,2.417,2.417,0,0,1-3.412-.092,2.7,2.7,0,0,1-.711-1.935Z" transform="translate(-13.558 -16.756)" fill="#393e46"/>
      <path id="Path_2076" data-name="Path 2076" d="M64.992,79v-.88h.9V74.392h1.9a2.239,2.239,0,0,1,1.637.669,2.2,2.2,0,0,1,.674,1.623v1.441h.88V79h-.89a2.45,2.45,0,0,1-.633,1.655,1.952,1.952,0,0,1-1.467.61,1.921,1.921,0,0,1-1.458-.6A2.56,2.56,0,0,1,65.9,79Zm2.687-.88a1.57,1.57,0,0,0,1.11-.4,1.351,1.351,0,0,0,.431-1.041,1.425,1.425,0,0,0-1.431-1.421H66.762v2.862Zm-.908.88a1.734,1.734,0,0,0,.367,1.06,1.085,1.085,0,0,0,.853.361,1.12,1.12,0,0,0,.876-.4,1.565,1.565,0,0,0,.353-1.077v-.734a1.674,1.674,0,0,1-.683.573,2.276,2.276,0,0,1-1,.216Z" transform="translate(-15.324 -17.54)" fill="#393e46"/>
      <path id="Path_2077" data-name="Path 2077" d="M72.854,78.134q.726,0,.724-.926V74.428h.872v2.66a1.127,1.127,0,0,0,.242.77.781.781,0,0,0,.61.275.766.766,0,0,0,.605-.275,1.142,1.142,0,0,0,.239-.77v-2.66h.88v2.66a1.142,1.142,0,0,0,.238.77.776.776,0,0,0,.614.275.766.766,0,0,0,.605-.275,1.142,1.142,0,0,0,.239-.77v-2.66h.88v2.66a2.007,2.007,0,0,1-.5,1.4,1.6,1.6,0,0,1-1.225.527,1.345,1.345,0,0,1-1.284-.751,1.5,1.5,0,0,1-2.558.064,1.221,1.221,0,0,1-1.184.687h-.266v-.88Z" transform="translate(-17.115 -17.548)" fill="#393e46"/>
      <path id="Path_2078" data-name="Path 2078" d="M82.848,72.46v-.385h.394a.649.649,0,0,1-.183-.449.682.682,0,0,1,.219-.518.764.764,0,0,1,.541-.206.8.8,0,0,1,.615.284l-.266.248a.429.429,0,0,0-.339-.147.4.4,0,0,0-.28.105.348.348,0,0,0-.115.27.4.4,0,0,0,.119.29.369.369,0,0,0,.275.124h.688v.385Zm.4.339h.871v5.383h-.871Z" transform="translate(-19.534 -16.717)" fill="#393e46"/>
      <path id="Path_2079" data-name="Path 2079" d="M89.16,79.611a.55.55,0,1,1,1.1,0,.554.554,0,0,1-.156.394.536.536,0,0,1-.394.164.523.523,0,0,1-.39-.164.543.543,0,0,1-.16-.394" transform="translate(-21.022 -18.64)" fill="#393e46"/>
      <path id="Path_2080" data-name="Path 2080" d="M93.692,80.176a1.186,1.186,0,0,0,.376.064q.945,0,.945-1.146V74.426l.88-.009v3.714H96.9v.88H95.893v.257a1.946,1.946,0,0,1-.44,1.334,1.716,1.716,0,0,1-1.357.5,1.876,1.876,0,0,1-.651-.111Z" transform="translate(-22.032 -17.546)" fill="#393e46"/>
      <path id="Path_2081" data-name="Path 2081" d="M97.727,77.639h1.551a1.884,1.884,0,0,1-.8-1.55,2.055,2.055,0,0,1,.642-1.522,2.159,2.159,0,0,1,1.577-.633,2.183,2.183,0,0,1,1.633.679,2.31,2.31,0,0,1,.66,1.677v2.229H97.727Zm1.972-.413a1.367,1.367,0,0,0,1,.413h1.414V76.227a1.41,1.41,0,0,0-1.414-1.421,1.356,1.356,0,0,0-1,.417,1.377,1.377,0,0,0-.413,1,1.361,1.361,0,0,0,.413,1m.588-4.741a.523.523,0,0,1,.385-.156.548.548,0,0,1,.55.55.526.526,0,0,1-.156.385.54.54,0,0,1-.394.164.513.513,0,0,1-.385-.16.533.533,0,0,1-.156-.389.55.55,0,0,1,.156-.394" transform="translate(-23.042 -17.053)" fill="#393e46"/>
      <path id="Path_2082" data-name="Path 2082" d="M106.47,75.062a2.213,2.213,0,0,1,1.623-.669,2.177,2.177,0,0,1,1.665.692,2.512,2.512,0,0,1,.646,1.784v1.888a2.378,2.378,0,0,1-.614,1.67,2.134,2.134,0,0,1-1.651.669,2.613,2.613,0,0,1-1.105-.243,2.2,2.2,0,0,1-.848-.665l.614-.578a1.482,1.482,0,0,0,.578.445,1.808,1.808,0,0,0,.743.16,1.37,1.37,0,0,0,.977-.348,1.3,1.3,0,0,0,.417-.862h-1.3a2.4,2.4,0,0,1-1.732-.66,2.313,2.313,0,0,1-.01-3.283m.633,2.66a1.537,1.537,0,0,0,1.11.4h1.311V76.8a1.58,1.58,0,0,0-.394-1.11,1.337,1.337,0,0,0-1.036-.431,1.378,1.378,0,0,0-1,.413,1.364,1.364,0,0,0-.417,1.009,1.338,1.338,0,0,0,.43,1.036" transform="translate(-24.943 -17.54)" fill="#393e46"/>
      <path id="Path_2083" data-name="Path 2083" d="M112.86,72.46v-.385h.394a.651.651,0,0,1-.183-.449.682.682,0,0,1,.219-.518.764.764,0,0,1,.541-.206.8.8,0,0,1,.615.284l-.267.248a.427.427,0,0,0-.339-.147.4.4,0,0,0-.28.105.349.349,0,0,0-.115.27.4.4,0,0,0,.12.29.369.369,0,0,0,.275.124h.687v.385Zm.4.339h.871v5.383h-.871Z" transform="translate(-26.61 -16.717)" fill="#393e46"/>
      <path id="Path_2084" data-name="Path 2084" d="M211.946,9.524a6.072,6.072,0,0,1-4.163,1.681,4.654,4.654,0,0,1-3.714-1.652A4.757,4.757,0,0,1,202.983,5.6,6.337,6.337,0,0,1,205.2,1.652,6.217,6.217,0,0,1,209.389,0a4.576,4.576,0,0,1,3.685,1.652A4.812,4.812,0,0,1,214.132,5.6a6.268,6.268,0,0,1-2.186,3.92" transform="translate(-47.844 0)" fill="#393e46"/>
      <path id="Path_2085" data-name="Path 2085" d="M215.045,38.3h-1.92a3.571,3.571,0,0,1-3.593-4.213l2.481-17.317H201.844l-2.48,17.317c-1.132,7.9,4.37,14.35,12.283,14.381h8.436A15.748,15.748,0,0,1,215.045,38.3" transform="translate(-46.971 -3.954)" fill="#393e46"/>
      <path id="Path_2086" data-name="Path 2086" d="M242.441,35.132l-4.169-.091,0-.023a3.571,3.571,0,0,1-3.593-4.212l1.164-8.128H245.4l1.457-10.167H237.3l1.246-8.7h-8.715l-2.7,8.7h-5.2l-1.457,10.167h5.2l-1.165,8.128c-1.131,7.9,4.371,14.349,12.264,14.38l10.481.021a15.784,15.784,0,0,1-4.818-10.075" transform="translate(-51.985 -0.899)" fill="#393e46"/>
      <path id="Path_2087" data-name="Path 2087" d="M90.1,43.846H79.843L86.1.147H96.355Z" transform="translate(-18.825 -0.034)" fill="#393e46"/>
      <path id="Path_2088" data-name="Path 2088" d="M58.96,16.755l-.186.573-1.016,3.125s-.552-5.01-7.477-4.475A17.875,17.875,0,0,0,40.162,20.61a18.648,18.648,0,0,0-6.33,11.6,13.669,13.669,0,0,0,3.042,11.359,13.366,13.366,0,0,0,10.69,4.669,17.5,17.5,0,0,0,6.779-1.353l-.1-3.172a.18.18,0,0,1,.176-.186.177.177,0,0,1,.186.176l.118,3.865,0,.005h9.12l4.414-30.814ZM55.752,32.106A6.908,6.908,0,0,1,49.1,37.876,4.812,4.812,0,0,1,45.249,36.2a4.921,4.921,0,0,1-1.1-4.089,6.715,6.715,0,0,1,2.279-4.175,6.371,6.371,0,0,1,4.335-1.707,4.854,4.854,0,0,1,3.873,1.707,5.028,5.028,0,0,1,1.111,4.175" transform="translate(-7.933 -3.758)" fill="#393e46"/>
      <path id="Path_2089" data-name="Path 2089" d="M126.365,16.755l-.186.573-1.016,3.125s-.552-5.01-7.477-4.475a17.875,17.875,0,0,0-10.118,4.632,18.648,18.648,0,0,0-6.33,11.6,13.669,13.669,0,0,0,3.042,11.359,13.366,13.366,0,0,0,10.69,4.669,17.5,17.5,0,0,0,6.779-1.353l-.1-3.172a.181.181,0,0,1,.177-.186.175.175,0,0,1,.186.176l.118,3.865,0,.005h9.12l4.414-30.814Zm-3.207,15.351a6.908,6.908,0,0,1-6.653,5.771,4.812,4.812,0,0,1-3.849-1.681,4.921,4.921,0,0,1-1.1-4.089,6.715,6.715,0,0,1,2.279-4.175,6.371,6.371,0,0,1,4.335-1.707,4.854,4.854,0,0,1,3.873,1.707,5.028,5.028,0,0,1,1.111,4.175" transform="translate(-23.826 -3.758)" fill="#393e46"/>
      <path id="Path_2090" data-name="Path 2090" d="M180.284,16.9a13.255,13.255,0,0,0-10.68-4.744,17.29,17.29,0,0,0-6.991,1.462L164.43.206h-9.3L148.877,43.86h9.132c0-.019-.011-.037-.005-.056l1.226-3.865a.182.182,0,1,1,.346.11l-.99,3.126a14.792,14.792,0,0,0,6.383,1.349A17.789,17.789,0,0,0,177,39.855a18.13,18.13,0,0,0,6.3-11.359,14.105,14.105,0,0,0-3.008-11.6M173,28.4a6.528,6.528,0,0,1-2.267,4.089,6.4,6.4,0,0,1-4.33,1.681,4.9,4.9,0,0,1-5-5.771,6.665,6.665,0,0,1,2.308-4.175,6.469,6.469,0,0,1,4.362-1.707,4.772,4.772,0,0,1,3.845,1.707A5.078,5.078,0,0,1,173,28.4" transform="translate(-35.102 -0.048)" fill="#393e46"/>
      <path id="Path_2091" data-name="Path 2091" d="M127.1,69.216l-.332,2.324a3.784,3.784,0,0,0,.971,3.544,6.016,6.016,0,0,0,4.15,1.2h2.705l.442-3.091c.873-6.092,5.307-6.3,5.583-6.3h3.487l-1.022,7.135q-.323,2.255,1.768,2.254h.7l-.319,2.232h-.7a4.254,4.254,0,0,1-3.355-1.208,3.89,3.89,0,0,1-.772-3.277l.712-4.974a8.367,8.367,0,0,0-1.754.987,4.494,4.494,0,0,0-1.65,3.149l-.762,5.322h-5.383q-4.043,0-6-1.859a5.553,5.553,0,0,1-1.484-5.113l.332-2.324Zm-1.836,12.6a1.44,1.44,0,0,1,.6-.952,1.9,1.9,0,0,1,1.187-.4,1.516,1.516,0,0,1,1.087.4,1.045,1.045,0,0,1,.338.952,1.491,1.491,0,0,1-.611.954,1.963,1.963,0,0,1-1.2.4,1.471,1.471,0,0,1-1.074-.4,1.058,1.058,0,0,1-.323-.954m5.434-.952a1.917,1.917,0,0,1,1.173-.4,1.567,1.567,0,0,1,1.1.4,1.028,1.028,0,0,1,.352.952,1.431,1.431,0,0,1-.623.942,1.994,1.994,0,0,1-1.215.407,1.454,1.454,0,0,1-1.058-.407,1.05,1.05,0,0,1-.339-.942,1.421,1.421,0,0,1,.61-.952" transform="translate(-29.236 -15.771)" fill="#f05e27"/>
      <path id="Path_2092" data-name="Path 2092" d="M151.048,77.286l.319-2.231h1.841a2.372,2.372,0,0,0,2.54-2.347l1.009-7.042h2.65L158.4,72.708q-.336,2.347,1.867,2.347h1.841l-.319,2.231h-1.842a3.473,3.473,0,0,1-3.287-1.58,4.829,4.829,0,0,1-3.768,1.58Zm3.492-14.247a1.434,1.434,0,0,1,.6-.952,1.9,1.9,0,0,1,1.185-.4,1.523,1.523,0,0,1,1.088.4,1.042,1.042,0,0,1,.337.952,1.428,1.428,0,0,1-.61.954,1.967,1.967,0,0,1-1.2.4,1.468,1.468,0,0,1-1.072-.4,1.057,1.057,0,0,1-.323-.954m5.3-.952a1.963,1.963,0,0,1,1.2-.4,1.518,1.518,0,0,1,1.087.4,1.038,1.038,0,0,1,.337.952,1.423,1.423,0,0,1-.61.954,1.961,1.961,0,0,1-1.2.4,1.519,1.519,0,0,1-1.087-.4,1.04,1.04,0,0,1-.337-.954,1.421,1.421,0,0,1,.61-.952" transform="translate(-35.614 -14.545)" fill="#f05e27"/>
      <path id="Path_2093" data-name="Path 2093" d="M164.687,76.28h1.841a2.358,2.358,0,0,0,2.512-2.346l1.009-7.042h2.676l-1.008,7.042q-.337,2.347,1.866,2.346h1.841l-.319,2.232h-1.841a3.5,3.5,0,0,1-3.315-1.58,4.69,4.69,0,0,1-3.74,1.58h-1.841ZM165.9,80.86a1.952,1.952,0,0,1,1.2-.4,1.525,1.525,0,0,1,1.072.4,1.028,1.028,0,0,1,.352.952,1.431,1.431,0,0,1-.623.942,1.95,1.95,0,0,1-1.187.407,1.485,1.485,0,0,1-1.085-.407,1.051,1.051,0,0,1-.34-.942,1.424,1.424,0,0,1,.611-.952m4.74,0a1.841,1.841,0,0,1,1.172-.4,1.53,1.53,0,0,1,1.074.4,1.028,1.028,0,0,1,.352.952,1.433,1.433,0,0,1-.623.942,1.954,1.954,0,0,1-1.188.407,1.471,1.471,0,0,1-1.073-.4,1.059,1.059,0,0,1-.323-.954,1.422,1.422,0,0,1,.61-.952" transform="translate(-38.754 -15.771)" fill="#f05e27"/>
      <path id="Path_2094" data-name="Path 2094" d="M177.687,78.512l.319-2.231h.754a2.372,2.372,0,0,0,2.54-2.347l1.008-7.042h2.679l-1.009,7.042q-.336,2.347,1.838,2.347h.754l-.319,2.231H185.5a3.472,3.472,0,0,1-3.287-1.58,4.724,4.724,0,0,1-3.768,1.58Zm2.135,3.207a1.488,1.488,0,0,1,.615-.988,1.975,1.975,0,0,1,1.23-.407,1.574,1.574,0,0,1,1.126.407,1.077,1.077,0,0,1,.346.988,1.445,1.445,0,0,1-.613.976,2.129,2.129,0,0,1-1.256.4,1.558,1.558,0,0,1-1.115-.4,1.06,1.06,0,0,1-.334-.976" transform="translate(-41.894 -15.771)" fill="#f05e27"/>
      <path id="Path_2095" data-name="Path 2095" d="M188.479,74.274h.81a2.371,2.371,0,0,0,2.539-2.347l1.941-13.55h2.65l-1.941,13.55q-.336,2.347,1.867,2.347h.809l-.319,2.232h-.809a3.477,3.477,0,0,1-3.288-1.58,4.826,4.826,0,0,1-3.767,1.58h-.81Z" transform="translate(-44.364 -13.764)" fill="#f05e27"/>
      <path id="Path_2096" data-name="Path 2096" d="M202.168,74.274l2.277-15.9h2.678l-1.434,10.017q4.184-3.508,7.893-3.509a6,6,0,0,1,4.567,1.7,4.951,4.951,0,0,1,1.233,4.346l-.176,1.232a4.989,4.989,0,0,1-1.8,3.2,5.867,5.867,0,0,1-3.762,1.151H198.78l.319-2.232Zm11.8,0a2.4,2.4,0,0,0,2.62-2.324l.146-1.023a3.18,3.18,0,0,0-.744-2.789,3.917,3.917,0,0,0-2.974-1.046q-3.154,0-7.712,4l-.456,3.184Z" transform="translate(-46.868 -13.764)" fill="#f05e27"/>
      <path id="Path_2097" data-name="Path 2097" d="M37.412.066H1.456L0,10.234H12.894L8.082,43.827H18.25l4.812-33.593H35.955Z" transform="translate(0 -0.015)" fill="#393e46"/>
      <path id="Path_2098" data-name="Path 2098" d="M295.368,26.163H263.7a.821.821,0,0,0,0,1.642h6.473l-.642,4.478h-6.708a.821.821,0,1,0,0,1.642H269.3l-.642,4.479h-6.708a.821.821,0,0,0,0,1.642h6.473l-.584,4.073a.821.821,0,0,0,.7.929.769.769,0,0,0,.118.008.822.822,0,0,0,.812-.7l.617-4.306h4.462l-.583,4.073a.821.821,0,0,0,.7.929.766.766,0,0,0,.117.008.822.822,0,0,0,.812-.7l.617-4.306h4.462l-.751,5.245a.821.821,0,0,0,.7.929.765.765,0,0,0,.117.008.822.822,0,0,0,.812-.7l.785-5.477h4.462l-.129.9a.821.821,0,0,0,.7.929.768.768,0,0,0,.118.008.821.821,0,0,0,.812-.7l.163-1.136h.079a.82.82,0,0,0,.821-.821.809.809,0,0,0-.669-.79l.646-4.51h2.857a.821.821,0,0,0,0-1.642h-2.621l.641-4.478h5.174a.821.821,0,0,0,0-1.642m-12.954,1.642-.641,4.478h-4.462l.641-4.478Zm-10.582,0h4.462l-.642,4.478h-4.462Zm-1.518,10.6.641-4.479h4.462l-.642,4.479Zm6.121,0,.641-4.479h4.462L280.9,38.4Zm10.582,0h-4.462l.642-4.479h4.462Zm.877-6.121h-4.462l.641-4.478h4.462Z" transform="translate(-61.568 -6.168)" fill="#393e46"/>
      <path id="Path_2099" data-name="Path 2099" d="M278.691,79.873a6.261,6.261,0,0,1-5.995,5.243,4.438,4.438,0,0,1-4.492-5.243A6.259,6.259,0,0,1,274.2,74.63a4.438,4.438,0,0,1,4.493,5.243" transform="translate(-63.223 -17.596)" fill="#393e46"/>
      <path id="Path_2100" data-name="Path 2100" d="M276.4,80.9a2.288,2.288,0,0,1-2.191,1.917,1.623,1.623,0,0,1-1.642-1.917,2.288,2.288,0,0,1,2.191-1.917A1.623,1.623,0,0,1,276.4,80.9" transform="translate(-64.26 -18.622)" fill="#f16522"/>
      <path id="Path_2101" data-name="Path 2101" d="M310.826,4.031a4.584,4.584,0,0,0-5.788-2.922l-13.8,4.539a4.587,4.587,0,0,0-2.711,2.392L276.7,33a9.22,9.22,0,0,1-7.641,4.666H266a5.149,5.149,0,0,1-5.425-4.77l-1.489-16.408a4.585,4.585,0,1,0-9.133.828l1.489,16.408A14.284,14.284,0,0,0,266,46.837h10.824a1.993,1.993,0,0,1,1.564.614,2.157,2.157,0,0,1,.4,1.744,4.469,4.469,0,0,1-4.143,3.658H233.856a4.585,4.585,0,1,0,0,9.171h3.358a8.144,8.144,0,0,1,7.7-6.354,5.739,5.739,0,0,1,5.881,6.354h6.76a8.145,8.145,0,0,1,7.7-6.354,5.739,5.739,0,0,1,5.881,6.354h3.512a13.627,13.627,0,0,0,13.221-11.529,11.322,11.322,0,0,0-2.553-9.051,10.672,10.672,0,0,0-2.058-1.813,18.463,18.463,0,0,0,1.513-2.277c.05-.09.1-.181.141-.274l11.058-23.336L307.9,9.819a4.585,4.585,0,0,0,2.922-5.788" transform="translate(-54.057 -0.207)" fill="#f05e27"/>
      <path id="Path_2102" data-name="Path 2102" d="M252.073,79.873a6.259,6.259,0,0,1-5.994,5.243,4.438,4.438,0,0,1-4.492-5.243,6.259,6.259,0,0,1,5.994-5.243,4.438,4.438,0,0,1,4.492,5.243" transform="translate(-56.948 -17.596)" fill="#393e46"/>
      <path id="Path_2103" data-name="Path 2103" d="M249.783,80.9a2.288,2.288,0,0,1-2.191,1.917A1.623,1.623,0,0,1,245.95,80.9a2.288,2.288,0,0,1,2.191-1.917,1.623,1.623,0,0,1,1.642,1.917" transform="translate(-57.985 -18.622)" fill="#f16522"/>
    </g>
  </g>
</svg>
